<svg width="25" height="24" viewBox="0 0 25 24" fill="none" xmlns="http://www.w3.org/2000/svg">
<path d="M11.153 8.65134V10.2625H9.97363V12.2316H11.153V18.0852H13.5773V12.2316H15.2036C15.2036 12.2316 15.3569 11.2874 15.4306 10.2543H13.5867V8.90875C13.5867 8.70633 13.8511 8.43606 14.1132 8.43606H15.433V6.38501H13.637C11.0933 6.38501 11.153 8.3565 11.153 8.65134Z" fill="#F6F0F8"/>
<path d="M12.6797 21.5953C15.1622 21.5953 17.543 20.6091 19.2983 18.8538C21.0537 17.0984 22.0399 14.7176 22.0399 12.2351C22.0399 9.75265 21.0537 7.37186 19.2983 5.61649C17.543 3.86111 15.1622 2.87495 12.6797 2.87495C10.1972 2.87495 7.81644 3.86111 6.06107 5.61649C4.30569 7.37186 3.31953 9.75265 3.31953 12.2351C3.31953 14.7176 4.30569 17.0984 6.06107 18.8538C7.81644 20.6091 10.1972 21.5953 12.6797 21.5953ZM12.6797 23.9353C6.21768 23.9353 0.979492 18.6972 0.979492 12.2351C0.979492 5.7731 6.21768 0.534912 12.6797 0.534912C19.1417 0.534912 24.3799 5.7731 24.3799 12.2351C24.3799 18.6972 19.1417 23.9353 12.6797 23.9353Z" fill="#F6F0F8"/>
</svg>
