<svg width="24" height="24" viewBox="0 0 24 24" fill="none" xmlns="http://www.w3.org/2000/svg">
<path d="M23.0688 4.75831C22.7749 3.99932 22.3258 3.31006 21.7501 2.73465C21.1745 2.15924 20.4851 1.71035 19.726 1.41673C18.8377 1.08328 17.8993 0.902977 16.9506 0.8835C15.728 0.830176 15.3408 0.814941 12.2404 0.814941C9.14008 0.814941 8.7427 0.814941 7.53023 0.8835C6.58234 0.901981 5.64457 1.08232 4.75743 1.41673C3.99813 1.71001 3.30852 2.15877 2.73285 2.73423C2.15717 3.30968 1.70815 3.99912 1.41458 4.75831C1.08106 5.64654 0.901175 6.58505 0.882621 7.53365C0.828028 8.755 0.811523 9.14223 0.811523 12.2439C0.811523 15.3442 0.811523 15.7391 0.882621 16.9541C0.901665 17.9037 1.08068 18.8407 1.41458 19.7307C1.70897 20.4896 2.15843 21.1788 2.73425 21.7541C3.31006 22.3295 3.99956 22.7784 4.7587 23.0723C5.64416 23.4191 6.58231 23.6123 7.53277 23.6436C8.75539 23.6969 9.14262 23.7134 12.243 23.7134C15.3433 23.7134 15.7407 23.7134 16.9532 23.6436C17.9017 23.6243 18.8401 23.4444 19.7285 23.1116C20.4874 22.8173 21.1767 22.368 21.7522 21.7925C22.3278 21.2169 22.7771 20.5277 23.0714 19.7688C23.4053 18.88 23.5843 17.9431 23.6033 16.9934C23.6579 15.7721 23.6744 15.3848 23.6744 12.2832C23.6744 9.18159 23.6744 8.78801 23.6033 7.57301C23.5886 6.611 23.4077 5.65877 23.0688 4.75831ZM21.5225 16.8601C21.5143 17.5918 21.3807 18.3166 21.1276 19.0032C20.937 19.4969 20.6451 19.9452 20.2707 20.3194C19.8964 20.6935 19.4479 20.9851 18.9541 21.1755C18.2751 21.4274 17.558 21.561 16.8338 21.5703C15.6277 21.6262 15.2875 21.6402 12.1947 21.6402C9.09945 21.6402 8.78332 21.6402 7.55435 21.5703C6.83059 21.5615 6.11377 21.4279 5.4354 21.1755C4.93986 20.9863 4.48955 20.6952 4.11361 20.321C3.73766 19.9468 3.44446 19.4978 3.25296 19.0032C3.00342 18.324 2.86994 17.6077 2.85811 16.8842C2.80352 15.6781 2.79083 15.3379 2.79083 12.2451C2.79083 9.15112 2.79083 8.83499 2.85811 7.60475C2.86632 6.87349 2.99987 6.14905 3.25296 5.46294C3.64019 4.46123 4.43368 3.67281 5.4354 3.28939C6.11411 3.03818 6.83072 2.90465 7.55435 2.89454C8.76174 2.83995 9.10073 2.82471 12.1947 2.82471C15.2887 2.82471 15.6061 2.82471 16.8338 2.89454C17.558 2.90325 18.2753 3.03683 18.9541 3.28939C19.4479 3.48017 19.8963 3.77209 20.2706 4.1464C20.6449 4.52072 20.9368 4.96916 21.1276 5.46294C21.3772 6.14211 21.5106 6.85843 21.5225 7.5819C21.5771 8.78928 21.591 9.12827 21.591 12.2223C21.591 15.315 21.591 15.6476 21.5364 16.8614H21.5225V16.8601Z" fill="#F6F0F8"/>
</svg>
