<svg width="31" height="24" viewBox="0 0 31 24" fill="none" xmlns="http://www.w3.org/2000/svg">
<path d="M28.4749 0.791504H1.89833C1.39486 0.791504 0.912013 0.994894 0.556007 1.35693C0.200002 1.71897 0 2.21 0 2.722V22.0269C0 22.5389 0.200002 23.0299 0.556007 23.392C0.912013 23.754 1.39486 23.9574 1.89833 23.9574H28.4749C28.9784 23.9574 29.4612 23.754 29.8172 23.392C30.1732 23.0299 30.3732 22.5389 30.3732 22.0269V2.722C30.3732 2.21 30.1732 1.71897 29.8172 1.35693C29.4612 0.994894 28.9784 0.791504 28.4749 0.791504ZM27.0132 22.0269H3.47394L10.1181 15.0385L8.75129 13.6968L1.89833 20.9072V4.18917L13.6964 16.1293C14.0521 16.4888 14.5332 16.6906 15.0348 16.6906C15.5363 16.6906 16.0174 16.4888 16.3731 16.1293L28.4749 3.88994V20.7817L21.4891 13.6775L20.1507 15.0385L27.0132 22.0269ZM3.14173 2.722H26.9373L15.0348 14.7586L3.14173 2.722Z" fill="#54425F"/>
</svg>
