<svg width="18" height="28" viewBox="0 0 18 28" fill="none" xmlns="http://www.w3.org/2000/svg">
<path d="M15.6984 0.839844H2.42714C1.92432 0.839844 1.44209 1.04212 1.08654 1.40216C0.730995 1.76221 0.53125 2.25054 0.53125 2.75972V25.7983C0.53125 26.3074 0.730995 26.7958 1.08654 27.1558C1.44209 27.5159 1.92432 27.7181 2.42714 27.7181H15.6984C16.2012 27.7181 16.6834 27.5159 17.039 27.1558C17.3945 26.7958 17.5943 26.3074 17.5943 25.7983V2.75972C17.5943 2.25054 17.3945 1.76221 17.039 1.40216C16.6834 1.04212 16.2012 0.839844 15.6984 0.839844ZM2.42714 2.75972H15.6984V20.0386H2.42714V2.75972ZM2.42714 25.7983V21.9585H15.6984V25.7983H2.42714Z" fill="#54425F"/>
</svg>
