<svg width="25" height="24" viewBox="0 0 25 24" fill="none" xmlns="http://www.w3.org/2000/svg">
<path d="M12.3194 21.5953C14.8018 21.5953 17.1826 20.6091 18.938 18.8538C20.6934 17.0984 21.6795 14.7176 21.6795 12.2351C21.6795 9.75265 20.6934 7.37186 18.938 5.61649C17.1826 3.86111 14.8018 2.87495 12.3194 2.87495C9.83688 2.87495 7.45609 3.86111 5.70071 5.61649C3.94534 7.37186 2.95918 9.75265 2.95918 12.2351C2.95918 14.7176 3.94534 17.0984 5.70071 18.8538C7.45609 20.6091 9.83688 21.5953 12.3194 21.5953ZM12.3194 23.9353C5.85733 23.9353 0.619141 18.6972 0.619141 12.2351C0.619141 5.7731 5.85733 0.534912 12.3194 0.534912C18.7814 0.534912 24.0196 5.7731 24.0196 12.2351C24.0196 18.6972 18.7814 23.9353 12.3194 23.9353Z" fill="#F6F0F8"/>
<path d="M18.169 8.66295C17.7384 8.85016 17.2762 8.97886 16.7907 9.03502C17.2868 8.74252 17.6659 8.27919 17.846 7.72811C17.3733 8.00361 16.8575 8.19743 16.3203 8.30142C16.0944 8.06457 15.8225 7.87624 15.5214 7.7479C15.2203 7.61956 14.8961 7.55391 14.5688 7.55494C13.2432 7.55494 12.1691 8.61381 12.1691 9.91839C12.1691 10.1033 12.1902 10.2834 12.2311 10.4566C11.2803 10.4114 10.3493 10.1686 9.49752 9.74352C8.64578 9.31846 7.89199 8.72052 7.28425 7.98785C7.0708 8.34717 6.95842 8.75749 6.95899 9.17542C6.95899 9.99444 7.38371 10.7199 8.02722 11.1422C7.64631 11.1303 7.27356 11.0289 6.9391 10.8462V10.8755C6.94271 11.4247 7.1366 11.9558 7.48774 12.3782C7.83888 12.8006 8.32558 13.0882 8.86495 13.1921C8.51086 13.2857 8.14035 13.2993 7.78034 13.2319C7.93728 13.7044 8.23744 14.1164 8.63917 14.4105C9.04089 14.7047 9.52424 14.8665 10.0221 14.8734C9.16795 15.5316 8.11923 15.8872 7.04089 15.8843C6.84784 15.8843 6.65712 15.8726 6.46875 15.8516C7.56912 16.5481 8.84502 16.917 10.1473 16.9151C14.563 16.9151 16.9767 13.3138 16.9767 10.1898L16.9685 9.88329C17.4392 9.5525 17.846 9.13902 18.169 8.66295Z" fill="#F6F0F8"/>
</svg>
