<svg width="29" height="22" viewBox="0 0 29 22" fill="none" xmlns="http://www.w3.org/2000/svg">
<path d="M27.2928 4.70718C27.1538 4.1519 26.8707 3.64313 26.4722 3.23226C26.0736 2.82139 25.5737 2.52297 25.0229 2.36714C23.0105 1.87573 14.9607 1.87573 14.9607 1.87573C14.9607 1.87573 6.911 1.87573 4.89856 2.41394C4.34777 2.56977 3.84786 2.86819 3.44931 3.27906C3.05077 3.68993 2.76771 4.1987 2.62872 4.75398C2.26042 6.79632 2.08026 8.86814 2.09051 10.9434C2.07738 13.0343 2.25755 15.1219 2.62872 17.1796C2.78195 17.7176 3.07135 18.2071 3.46897 18.6006C3.86658 18.9941 4.35897 19.2784 4.89856 19.4261C6.911 19.9643 14.9607 19.9643 14.9607 19.9643C14.9607 19.9643 23.0105 19.9643 25.0229 19.4261C25.5737 19.2702 26.0736 18.9718 26.4722 18.5609C26.8707 18.1501 27.1538 17.6413 27.2928 17.086C27.6582 15.0591 27.8384 13.003 27.831 10.9434C27.8441 8.85252 27.6639 6.7649 27.2928 4.70718V4.70718Z" stroke="#F6F0F8" stroke-width="2.34004" stroke-linecap="round" stroke-linejoin="round"/>
<path d="M12.3281 14.7691L19.0557 10.9432L12.3281 7.11719V14.7691Z" stroke="#F6F0F8" stroke-width="2.34004" stroke-linecap="round" stroke-linejoin="round"/>
</svg>
